# xmcd CD database file
#
# Track frame offsets:
#	182
#	18187
#	33292
#	50670
#	69970
#	86275
#	103450
#	120730
#	134300
#	147070
#	165795
#	182477
#	197315
#	215222
#	230867
#	246817
#
# Disc length: 3531 seconds
#
# Revision: 2
# Processed by: cddbd v1.4PL0 Copyright (c) Steve Scherf et al.
# Submitted via: CDex 1.50
#
DISCID=d60dc910
DTITLE=Sylvie Vartan - Sylvie Vartan
DYEAR=1984
DGENRE=Chanson
TTITLE0=Danse ta Vie
TTITLE1=Tout finit par le soleil
TTITLE2=La premiere foi qu'on s'aimera
TTITLE3=Comme le lierre avec lui
TTITLE4=Deprime
TTITLE5=Lucie
TTITLE6=Disparue
TTITLE7=Novembre a la Rochelle
TTITLE8=Comme une goutte d'eau
TTITLE9=Ta vie de chien
TTITLE10=Les Balkans e la Provence
TTITLE11=Marathon Woman
TTITLE12=Manana Tomorrow
TTITLE13=Encore!...
TTITLE14=La sortie de secours
TTITLE15=Avec l'amour (eye of the Tiger)
EXTD=YEAR: 1984
EXTT0=
EXTT1=
EXTT2=
EXTT3=
EXTT4=
EXTT5=
EXTT6=
EXTT7=
EXTT8=
EXTT9=
EXTT10=
EXTT11=
EXTT12=
EXTT13=
EXTT14=
EXTT15=
PLAYORDER=
